<?xml version="1.0" encoding="UTF-8"?>
<svg width="11px" height="20px" viewBox="0 0 11 20" version="1.1" xmlns="http://www.w3.org/2000/svg" xmlns:xlink="http://www.w3.org/1999/xlink">
    <!-- Generator: Sketch 45.2 (43514) - http://www.bohemiancoding.com/sketch -->
    <title>Shape</title>
    <desc>Created with Sketch.</desc>
    <defs></defs>
    <g id="Page-1" stroke="none" stroke-width="1" fill="none" fill-rule="evenodd">
        <g id="Desktop-HD" transform="translate(-272.000000, -1367.000000)" fill-rule="nonzero" fill="#FFFFFF">
            <g id="share" transform="translate(208.000000, 1316.000000)">
                <g id="social-likes" transform="translate(0.000000, 42.000000)">
                    <g id="fb">
                        <path d="M74.3117526,9.00412371 L71.7416495,9 C68.8542268,9 66.9882474,10.914433 66.9882474,13.8775258 L66.9882474,16.1263918 L64.4041237,16.1263918 C64.1808247,16.1263918 64,16.3074227 64,16.5307216 L64,19.7890722 C64,20.0123711 64.1810309,20.1931959 64.4041237,20.1931959 L66.9882474,20.1931959 L66.9882474,28.4150515 C66.9882474,28.6383505 67.1690722,28.8191753 67.3923711,28.8191753 L70.7639175,28.8191753 C70.9872165,28.8191753 71.1680412,28.6381443 71.1680412,28.4150515 L71.1680412,20.1931959 L74.1894845,20.1931959 C74.4127835,20.1931959 74.5936082,20.0123711 74.5936082,19.7890722 L74.5948454,16.5307216 C74.5948454,16.4235052 74.5521649,16.3208247 74.4764948,16.2449485 C74.4008247,16.1690722 74.297732,16.1263918 74.1905155,16.1263918 L71.1680412,16.1263918 L71.1680412,14.22 C71.1680412,13.3037113 71.3863918,12.8385567 72.58,12.8385567 L74.3113402,12.8379381 C74.534433,12.8379381 74.7152577,12.6569072 74.7152577,12.4338144 L74.7152577,9.40824742 C74.7152577,9.18536082 74.5346392,9.00453608 74.3117526,9.00412371 Z" id="Shape"></path>
                    </g>
                </g>
            </g>
        </g>
    </g>
</svg>