<?xml version="1.0" encoding="UTF-8"?>
<svg width="27px" height="20px" viewBox="0 0 27 20" version="1.1" xmlns="http://www.w3.org/2000/svg" xmlns:xlink="http://www.w3.org/1999/xlink">
    <!-- Generator: Sketch 45.2 (43514) - http://www.bohemiancoding.com/sketch -->
    <title>google-plus</title>
    <desc>Created with Sketch.</desc>
    <defs></defs>
    <g id="Page-1" stroke="none" stroke-width="1" fill="none" fill-rule="evenodd">
        <g id="Desktop-HD" transform="translate(-816.000000, -1367.000000)" fill-rule="nonzero" fill="#FFFFFF">
            <g id="share" transform="translate(208.000000, 1316.000000)">
                <g id="social-likes" transform="translate(0.000000, 42.000000)">
                    <g id="google" transform="translate(552.000000, 0.000000)">
                        <g id="google-plus" transform="translate(56.000000, 9.000000)">
                            <path d="M19.9720635,8.88661376 L10.6517989,8.88661376 L10.6517989,11.9933862 L16.3380952,11.9933862 C15.4898413,14.6943386 12.9669841,16.653545 9.98597884,16.653545 C6.30915344,16.653545 3.32867725,13.6728571 3.32867725,9.99619048 C3.32867725,6.31936508 6.30925926,3.33888889 9.98597884,3.33888889 C11.8375132,3.33888889 13.5121693,4.09492063 14.7188889,5.31486772 L16.9740212,2.86365079 C15.172963,1.09883598 12.7068254,0.0102645503 9.98597884,0.0102645503 C4.47089947,0.0102116402 0,4.48111111 0,9.99619048 C0,15.5112698 4.47089947,19.9822751 9.98603175,19.9822751 C14.8170899,19.9822751 19.0467725,16.5513757 19.9721164,11.9934392 L19.9721164,8.88666667 L19.9720635,8.88661376 L19.9720635,8.88661376 Z" id="Shape"></path>
                            <polygon id="Shape" points="26.0242328 8.88132275 24.1178307 8.88132275 24.1178307 6.97492063 22.4836508 6.97492063 22.4836508 8.88132275 20.5772487 8.88132275 20.5772487 10.5153439 22.4836508 10.5153439 22.4836508 12.4217989 24.1178307 12.4217989 24.1178307 10.5153439 26.0242328 10.5153439"></polygon>
                        </g>
                    </g>
                </g>
            </g>
        </g>
    </g>
</svg>