<?xml version="1.0" encoding="UTF-8"?>
<svg width="14px" height="23px" viewBox="0 0 14 23" version="1.1" xmlns="http://www.w3.org/2000/svg" xmlns:xlink="http://www.w3.org/1999/xlink">
    <!-- Generator: Sketch 45.2 (43514) - http://www.bohemiancoding.com/sketch -->
    <title>odn</title>
    <desc>Created with Sketch.</desc>
    <defs></defs>
    <g id="Page-1" stroke="none" stroke-width="1" fill="none" fill-rule="evenodd">
        <g id="Desktop-HD" transform="translate(-546.000000, -1366.000000)" fill-rule="nonzero" fill="#FFFFFF">
            <g id="share" transform="translate(208.000000, 1316.000000)">
                <g id="social-likes" transform="translate(0.000000, 42.000000)">
                    <g id="ok" transform="translate(276.000000, 0.000000)">
                        <g id="odn" transform="translate(62.000000, 8.000000)">
                            <path d="M5.75982292,16.1129375 C3.98642708,15.9279792 2.38744792,15.4912188 1.01846875,14.4205208 C0.848604167,14.2873125 0.673229167,14.1588958 0.51821875,14.0101146 C-0.0809791667,13.4346354 -0.141354167,12.7755417 0.33278125,12.0963229 C0.738395833,11.5150937 1.41929167,11.3596042 2.12702083,11.6933437 C2.2640625,11.7580312 2.39463542,11.8387708 2.51969792,11.9255 C5.07102083,13.6785312 8.57588542,13.7269271 11.1367917,12.0043229 C11.3905104,11.8097812 11.6617187,11.6511771 11.9760521,11.5701979 C12.5872292,11.4132708 13.1571979,11.6377604 13.4851875,12.1725104 C13.8598958,12.7832083 13.8551042,13.3792917 13.3934271,13.8534271 C12.6852187,14.5803229 11.8335,15.1062083 10.8871458,15.47325 C9.99230208,15.8201667 9.01216667,15.9948229 8.04209375,16.1107813 C8.18847917,16.2701042 8.25747917,16.3484479 8.349,16.4404479 C9.66622917,17.7639063 10.9892083,19.0818542 12.302125,20.4093854 C12.7494271,20.8617188 12.8428646,21.4225833 12.5965729,21.9487083 C12.3272813,22.5237083 11.7244896,22.9020104 11.1334375,22.8615208 C10.7589687,22.8356458 10.4669167,22.64925 10.2074479,22.3878646 C9.21341667,21.3876042 8.20069792,20.4057917 7.22679167,19.3866042 C6.94336458,19.0902396 6.80704167,19.1463021 6.55691667,19.4036146 C5.55689583,20.4331042 4.54058333,21.4467813 3.51828125,22.4547083 C3.05923958,22.9072813 2.51298958,22.9887396 1.98063542,22.7302292 C1.41473958,22.4559063 1.05464583,21.8782708 1.0824375,21.2977604 C1.10160417,20.9050833 1.29470833,20.605125 1.56423958,20.3360729 C2.8678125,19.0344167 4.16779167,17.7294063 5.46825,16.4255938 C5.55426042,16.3388646 5.63452083,16.2468646 5.75982292,16.1129375 Z" id="Shape"></path>
                            <path d="M6.84010417,11.5788229 C3.67640625,11.5680417 1.08219792,8.94532292 1.10064583,5.77659375 C1.11885417,2.57288542 3.71473958,-0.00886458333 6.90958333,0 C10.1108958,0.008625 12.6804271,2.62751042 12.664375,5.86452083 C12.6480833,9.02678125 10.0359063,11.5898438 6.84010417,11.5788229 Z M9.71534375,5.78426042 C9.70983333,4.21091667 8.4568125,2.958375 6.88658333,2.9569375 C5.30317708,2.95526042 4.03889583,4.2305625 4.05111458,5.81828125 C4.06285417,7.38563542 5.32665625,8.6293125 6.90119792,8.6235625 C8.47094792,8.61805208 9.72061458,7.35736458 9.71534375,5.78426042 Z" id="Shape"></path>
                        </g>
                    </g>
                </g>
            </g>
        </g>
    </g>
</svg>