<?xml version="1.0" encoding="UTF-8"?>
<svg width="27px" height="15px" viewBox="0 0 27 15" version="1.1" xmlns="http://www.w3.org/2000/svg" xmlns:xlink="http://www.w3.org/1999/xlink">
    <!-- Generator: Sketch 45.2 (43514) - http://www.bohemiancoding.com/sketch -->
    <title>vk</title>
    <desc>Created with Sketch.</desc>
    <defs></defs>
    <g id="Page-1" stroke="none" stroke-width="1" fill="none" fill-rule="evenodd">
        <g id="Desktop-HD" transform="translate(-402.000000, -1370.000000)" fill="#FFFFFF">
            <g id="share" transform="translate(208.000000, 1316.000000)">
                <g id="social-likes" transform="translate(0.000000, 42.000000)">
                    <g id="vk" transform="translate(138.000000, 0.000000)">
                        <g transform="translate(56.000000, 12.000000)" id="XMLID_807_">
                            <path d="M22.7119942,9.50080925 C23.5873699,10.3554624 24.5113006,11.1595665 25.2964162,12.1004046 C25.643237,12.5184971 25.9715896,12.9499422 26.2227746,13.4351445 C26.5786994,14.1248844 26.2563295,14.8839017 25.6378613,14.9250867 L21.7933526,14.9233526 C20.8017919,15.0056358 20.0107803,14.6064451 19.3456647,13.9284971 C18.8133815,13.3863295 18.3204624,12.8093064 17.8086416,12.2488439 C17.598815,12.0197688 17.3791908,11.8042197 17.1168208,11.6338439 C16.5919942,11.2931792 16.1364451,11.3974855 15.8365318,11.9448555 C15.5310694,12.5015896 15.4617919,13.1180636 15.4317919,13.738526 C15.3906069,14.643815 15.1169653,14.8818208 14.2076012,14.9232659 C12.2641908,15.0149133 10.4197977,14.720896 8.70641618,13.7405202 C7.19583815,12.8762428 6.02445087,11.6561272 5.00488439,10.2748266 C3.01976879,7.58514451 1.49956647,4.62962428 0.133265896,1.59130058 C-0.174277457,0.906763006 0.0506358382,0.539306358 0.805924855,0.526300578 C2.06011561,0.501936416 3.31413295,0.50367052 4.56979769,0.524566474 C5.07953757,0.532023121 5.41699422,0.824393064 5.61381503,1.30595376 C6.29236994,2.97442197 7.12265896,4.56182081 8.16485549,6.03320809 C8.44239884,6.4249422 8.72540462,6.8166763 9.1284104,7.09239884 C9.57424855,7.39768786 9.91369942,7.29650289 10.1234393,6.79985549 C10.2565318,6.4849422 10.3147977,6.14575145 10.3447977,5.80846821 C10.4441618,4.64809249 10.4572543,3.48971098 10.2829769,2.3334104 C10.1759827,1.61176301 9.76950867,1.14459538 9.04942197,1.00803468 C8.68196532,0.938410405 8.7366763,0.801676301 8.91459538,0.591936416 C9.22361272,0.230202312 9.51424855,0.00502890173 10.0936127,0.00502890173 L14.4384971,0.00502890173 C15.1225145,0.140028902 15.274422,0.447312139 15.3680636,1.13557803 L15.3717919,5.96184971 C15.3643353,6.2282948 15.5048844,7.01895954 15.9847977,7.19531792 C16.3689017,7.32086705 16.6220809,7.01358382 16.8525434,6.7700289 C17.8928324,5.66592486 18.635289,4.36109827 19.2985838,3.0099711 C19.592948,2.41586705 19.8460405,1.79887283 20.0913295,1.18239884 C20.2730636,0.724942197 20.558237,0.499855491 21.073526,0.50982659 L25.2552312,0.513554913 C25.3792197,0.513554913 25.5046821,0.515375723 25.6247688,0.535924855 C26.329422,0.656011561 26.5225145,0.959132948 26.3048844,1.64722543 C25.9619653,2.72679191 25.2947688,3.62644509 24.6423988,4.53026012 C23.9450289,5.49520231 23.1991908,6.42710983 22.5076301,7.39777457 C21.8722543,8.28416185 21.9227168,8.73095376 22.7119942,9.50080925 L22.7119942,9.50080925 Z"></path>
                        </g>
                    </g>
                </g>
            </g>
        </g>
    </g>
</svg>